# Alias OBJ Model File
# Exported from SketchUp, (c) 2000-2012 Trimble Navigation Limited
# File units = millimeters

mtllib aa.mtl

g Mesh1 A_1_1 Model

usemtl FrontColor
v -13293.8 -7.04992e-16 -12657.8
vt -2.44998 7.26696
vn 0 -1 -0
v -13331.6 -7.04992e-16 -12473.3
vt -0.976086 0
v -13356.6 -7.04992e-16 -12473.3
vt 0 0
f 1/1/1 2/2/1 3/3/1

v -13314.7 -7.04992e-16 -12524.8
vt -1.63494 2.03026
f 2/2/1 1/1/1 4/4/1

v -13307.8 -7.04992e-16 -12545.8
vt -1.90337 2.85505
f 4/4/1 1/1/1 5/5/1

v -13279.1 -7.04992e-16 -12632.8
vt -3.02099 6.28111
f 5/5/1 1/1/1 6/6/1

v -13263.2 -7.04992e-16 -12657.8
vt -3.6408 7.26696
f 6/6/1 1/1/1 7/7/1

vt -3.6408 0
vn 0 0 -1
vt -2.44998 0
v -13293.8 113.4 -12657.8
vt -2.44998 0.393701
v -13263.2 113.4 -12657.8
vt -3.6408 0.393701
f 7/8/2 1/9/2 8/10/2 9/11/2 

vt -7.66884 0
vn -0.94855 0 -0.316627
v -13356.6 113.4 -12473.3
vt 0 0.393701
vt -7.66884 0.393701
f 1/12/3 3/3/3 10/13/3 8/14/3 

vn 0 0 1
vt 0.976086 0
v -13331.6 113.4 -12473.3
vt 0.976086 0.393701
f 3/3/4 2/15/4 11/16/4 10/13/4 

vt 0.301291 0
vn 0.952063 0 0.305904
vt 2.43578 0
v -13314.7 113.4 -12524.8
vt 2.43578 0.393701
vt 0.301291 0.393701
f 2/17/5 4/18/5 12/19/5 11/20/5 

vt 1.63494 0
v -13243.4 -7.04992e-16 -12524.8
vt 4.41191 0
v -13243.4 113.4 -12524.8
vt 4.41191 0.393701
vt 1.63494 0.393701
f 4/21/4 13/22/4 14/23/4 12/24/4 

vt -4.41191 2.03026
f 5/5/1 13/25/1 4/4/1

v -13250.3 -7.04992e-16 -12545.8
vt -4.14348 2.85505
f 13/25/1 5/5/1 15/26/1

vt -4.14348 0
vt -1.90337 0
v -13307.8 113.4 -12545.8
vt -1.90337 0.393701
v -13250.3 113.4 -12545.8
vt -4.14348 0.393701
f 15/27/2 5/28/2 16/29/2 17/30/2 

vt 3.30457 0
vn 0.951597 0 0.307348
vt 6.90831 0
v -13279.1 113.4 -12632.8
vt 6.90831 0.393701
vt 3.30457 0.393701
f 5/31/6 6/32/6 18/33/6 16/34/6 

vt -5.02833 0
vn -0.951204 0 0.308562
vt -1.42307 0
vt -1.42307 0.393701
vt -5.02833 0.393701
f 6/35/7 15/36/7 17/37/7 18/38/7 

f 6/6/1 7/7/1 15/26/1

v -13200.4 -7.04992e-16 -12473.3
vt -6.09078 0
f 15/26/1 7/7/1 19/39/1

vt -1.94583 0
vn 0.94855 0 -0.316627
vt 5.72301 0
vt 5.72301 0.393701
v -13200.4 113.4 -12473.3
vt -1.94583 0.393701
f 19/40/8 7/41/8 9/42/8 20/43/8 

vt 3.6408 7.26696
vn 0 1 -0
vt 4.14348 2.85505
vt 6.09078 0
f 9/44/9 17/45/9 20/46/9

vt 3.02099 6.28111
f 9/44/9 18/47/9 17/45/9

vt 2.44998 7.26696
f 8/48/9 18/47/9 9/44/9

vt 1.90337 2.85505
f 8/48/9 16/49/9 18/47/9

vt 1.63494 2.03026
f 8/48/9 12/50/9 16/49/9

f 8/48/9 11/15/9 12/50/9

f 11/15/9 8/48/9 10/3/9

vt 4.41191 2.03026
f 14/51/9 16/49/9 12/50/9

f 16/49/9 14/51/9 17/45/9

f 20/46/9 17/45/9 14/51/9

v -13226.5 113.4 -12473.3
vt 5.07077 0
f 20/46/9 14/51/9 21/52/9

vt -0.569283 0
vn -0.952063 0 0.305904
v -13226.5 -7.04992e-16 -12473.3
vt 1.56521 0
vt 1.56521 0.393701
vt -0.569283 0.393701
f 13/53/10 22/54/10 21/55/10 14/56/10 

vt -5.07077 0
f 13/25/1 19/39/1 22/57/1

f 15/26/1 19/39/1 13/25/1

vt 6.09078 0.393701
vt 5.07077 0.393701
f 22/52/4 19/46/4 20/58/4 21/59/4 

